<?xml version="1.0" encoding="UTF-8"?>
<svg xmlns="http://www.w3.org/2000/svg" version="1.1" viewBox="241.4 364.7 867.7 294.5" preserveAspectRatio="xMidYMid meet">
<defs><style>.st0{fill:#F3BD25;}</style></defs>
<g transform="translate(-506,0)">
<path class="st0" d="M830,425.2h.5c6-.9,12-1.9,18-2.9h.5c0,0,.7-.2.7-.2,6.1-1,12.2-2.2,18.3-3.3,1.1-.3,2.3-.6,3.4-1h0s0,0,0,0c1.1-.4,2.2-.8,3.3-1.3,1.2-.7,2.3-1.4,3.3-2.3h0c0,0,0-.1,0-.1,1-.9,1.9-1.8,2.8-2.8h0c0,0,0-.2,0-.2.8-1,1.6-2.1,2.2-3.2h0c0,0,0-.2,0-.2.6-1.2,1.1-2.4,1.6-3.6h0c0,0,0-.2,0-.2.4-1.3.7-2.6.9-3.9h0s0,0,0,0c.1-.9.2-1.9.2-2.8s0-.8,0-1.2h0s0,0,0,0c0-1.4-.3-2.7-.6-4.1-.4-.9-.9-1.8-1.5-2.6h0s0,0,0,0c-.6-.8-1.3-1.5-2.1-2.1h0s0,0,0,0c-.8-.6-1.6-1.2-2.5-1.6h0s0,0,0,0c-.9-.4-1.8-.7-2.8-.9,0,0-.2,0-.2,0-1.9,0-3.7.1-5.6.4h0s0,0,0,0c-1.9.3-3.8.6-5.7,1.1h0s0,0,0,0h0s0,0,0,0c-7,2.1-13.9,4.2-20.9,6.5h0s0,0,0,0c-13.9,4.5-27.6,9.4-41.2,14.6h0s0,0,0,0c-6.8,2.6-13.6,5.3-20.3,8h0s0,0,0,0h0,0c-1.3.5-2.5,1.1-3.7,1.8h0s0,0,0,0c-1.1.7-2.2,1.4-3.2,2.3h0c0,0,0,.1,0,.1-1,.8-1.9,1.8-2.8,2.8h0c0,0,0,.1,0,.1-.8,1-1.6,2.1-2.3,3.2h0c0,0,0,0,0,0-.7,1.2-1.3,2.4-1.8,3.7-.4,1.3-.7,2.5-.8,3.8h0s0,.2,0,.2c-.2,1.2-.3,2.4-.3,3.6s0,.1,0,.2h0c0,0,0,.3,0,.3,0,1.2.1,2.5.3,3.7h0s0,.2,0,.2c.2,1.3.5,2.5.9,3.7h0s0,0,0,0c.4,1,.8,2,1.3,3h0c0,.1,0,.2,0,.2.5.9,1,1.9,1.6,2.8h0c0,0,0,.2,0,.2.6.9,1.3,1.8,2,2.6h0s0,0,0,0l47.9,47.7-1.3,32.1-13.7,9.2c-.6.2-1.2.5-1.7.9h0s0,0,0,0c-.5.4-.9.8-1.2,1.3h0c0,0,0,.2,0,.2-.3.5-.5,1-.7,1.6h0c0,0,0,.2,0,.2,0,.4-.1.8-.1,1.2s0,.4,0,.6h0s0,0,0,0c.3.5.6.9,1,1.2h0s0,0,0,0c.4.3.9.6,1.4.7h0s0,0,0,0c.4.1.8.2,1.2.2s.3,0,.4,0c1.8-.1,3.6-.3,5.4-.7h0s0,0,0,0c1.8-.3,3.6-.8,5.3-1.3,3.2-1.5,6.3-3.1,9.4-4.8l.4-.2.3-.2c3-1.7,6-3.4,8.9-5.3l.3-.2.3-.2c3-1.9,5.9-3.8,8.8-5.9,1-.7,1.9-1.6,2.7-2.5h0s0,0,0,0c1.7-1.8,3.1-3.9,4-6.2h0s0,0,0,0c.5-1.1.9-2.3,1.1-3.5.4-1.6.7-3.1,1-4.7h0c0,0,0-.2,0-.2.2-1.6.4-3.2.4-4.7h0c0,0,0-.1,0-.1,0-.5,0-1.1,0-1.6,0-1.1,0-2.2-.1-3.2h0s0,0,0,0c-.1-1.6-.3-3.3-.6-4.9h0s0,0,0,0c-.3-1.6-.7-3.2-1.2-4.8-1.2-2.4-2.4-4.8-3.8-7.1h0c0,0,0-.2,0-.2-1.3-2.3-2.8-4.5-4.3-6.6v-.2c0,0-.2-.2-.2-.2-1.5-2.1-3.1-4.2-4.8-6.1v-.2c-.1,0-.2-.1-.2-.1-1.7-2-3.5-3.9-5.4-5.7h-.1c0-.1,0-.2,0-.2-1.9-1.9-3.9-3.7-6-5.4h0s0,0,0,0l-27.4-21.9,5.5-13.1h0l4.4-.7c6.2-.7,12.3-1.5,18.5-2.4h.7ZM800,436.2h0s0,0,0,0h0ZM802.1,431.3s0,0,0,0h0s0,0,0,0ZM800.7,433.6s0,0,0,0h0s0,0,0,0ZM828,519.5h0s0,0,0,0h0ZM827.1,523.4h0s0,0,0,0h0ZM825.5,527.1h0s0,0,0,0h0ZM823.2,530.4h0s0,0,0,0h0ZM828.2,515.5s0,0,0,0h0s0,0,0,0ZM827.6,511.6s0,0,0,0h0s0,0,0,0ZM826.3,507.8s0,0,0-.1h0c0,0,0,.1,0,.1ZM824.3,504.3s0,0,0,0h0c0,0,0,0,0,0ZM800.1,438.9h0s0,0,0,.1h0ZM804,429.5h0s0,0,0,0c0,0,0,0,0,0Z"/><polygon class="st0" points="1003.7 499.8 1001.3 497 998.4 494.8 995.1 493.2 991.6 491 988.4 488.3 985.8 485 983.8 481.3 982.5 477.4 981 474.7 979 472.4 976.6 470.5 973.8 469.3 970.8 468.7 967.7 468.7 964.7 469.5 961 470.7 957.5 472.6 954.4 475 946 483.5 937.2 491.5 928.1 499.2 918.6 506.5 915.5 507.5 912.3 507.9 909 507.7 905.9 506.8 903 505.2 900.4 503.2 898.4 500.6 896.9 497.7 896.6 487.6 897.1 477.6 898.4 467.5 897.4 465.1 895.9 462.9 893.9 461.2 891.5 460.1 888.9 459.5 886.2 459.5 883.6 460.1 881.1 461.2 879 462.8 877.2 464.8 874.9 467.9 873.1 471.4 871.9 475 871.2 478.9 871.2 482.7 875.2 499 875.7 500.6 876.7 501.9 878 502.9 878.2 505.3 878.9 507.7 880 509.9 882.8 512.9 886.1 515.5 889.8 517.4 896.4 520.5 902.6 521.6 908.8 521.9 915.1 521.5 921.3 520.3 927.3 518.3 932.2 514.6 949.9 498.8 952.9 497.7 955.7 494.1 958.9 490.9 962.5 488.1 966.4 485.7 967.8 485.2 969.2 485.3 970.5 485.8 971.5 486.9 972 488.2 972 489.6 972.9 492.3 974.3 494.8 976.3 496.9 975.8 498.9 975.9 501.1 976.5 503.1 983.6 516.8 985.9 518 988.4 518.7 991.1 518.7 993.6 518.1 996.8 516.7 999.7 514.8 1002.2 512.3 1003.3 508.2 1003.8 504 1003.7 499.8"/><polygon class="st0" points="1113.9 508.7 1117.7 505.4 1121.1 501.6 1123.8 497.4 1125.8 492.7 1127.2 487.9 1127.8 482.8 1126.7 478.7 1125.8 471.6 1125.7 468.6 1124.9 465.8 1123.5 463.1 1121.7 460.8 1119.4 458.9 1115.9 457.1 1112.2 455.9 1108.3 455.2 1100.1 454.6 1091.9 454.7 1083.8 455.5 1075.7 457 1068 459.4 1060.6 462.5 1053.6 466.4 1046.9 470.9 1040.8 476.1 1035.1 481.8 1030.1 488.1 1025.7 494.9 1022 502 1019.1 509.5 1018.3 513.8 1017.8 518.3 1017.7 522.7 1017.3 529.5 1015.5 547.4 1015.8 554.5 1015.9 558.9 1015.1 562.1 1015.3 568.6 1014.8 575 1013.8 581.4 1012.3 587.6 1012.4 605.8 1011.2 607.4 1010.6 609.2 1010.6 611.2 1011.1 618.2 1010.2 619.2 1009.6 620.4 1009.5 621.8 1010.6 625.8 1010.8 633.3 1012.1 635.4 1013.9 637.2 1016 638.5 1018.4 639.2 1020.8 639.1 1023.1 638.7 1025.4 637.9 1028.5 634.9 1031.1 631.4 1033.2 627.5 1034.7 623.4 1035.6 619.2 1035.9 584.5 1034.6 563.2 1035.6 557.3 1034.6 551.3 1034.3 518.9 1035.2 512.7 1036.8 506.6 1039.1 500.7 1041.9 495.2 1045.4 489.9 1049.4 485.1 1053.9 480.8 1058.9 476.9 1064.2 473.7 1069.9 471 1074.7 469.3 1079.7 468.3 1084.7 468 1089.8 468.3 1094.8 469.4 1099.5 471.1 1104.1 473.4 1108.2 476.3 1110.2 478.6 1111.6 481.3 1112.4 484.2 1112.4 487.3 1110.1 492.4 1107.1 497.1 1103.7 501.6 1100.7 503.3 1097.4 504.4 1094 504.9 1090.5 504.9 1087.1 504.2 1083 502.9 1079.1 501.2 1075.2 499.2 1072.9 498.2 1070.4 497.7 1067.8 497.7 1065.3 498.3 1063 499.2 1060.9 500.7 1059.5 502.8 1058.7 505.2 1058.6 507.8 1059.3 510.2 1060.5 513.2 1062.5 515.9 1065 518 1067.9 519.5 1071.1 520.3 1076.2 520.5 1081.4 520.3 1086.6 519.6 1094.4 517.3 1102.1 514.6 1109.6 511.4 1113.9 508.7"/><polygon class="st0" points="1188.3 543.2 1192.8 543.5 1197.2 543.1 1201.6 542 1205.7 540.3 1209.6 538 1209.9 537.1 1209.8 536.2 1209.2 535.4 1202.2 531.3 1194.8 528 1187.1 525.3 1178.7 522.4 1170.6 518.9 1162.7 514.9 1159.3 513.3 1156.3 511.1 1153.8 508.4 1151.8 505.2 1150.5 501.7 1149.8 498 1149.9 494.3 1150.7 490.6 1152.2 487.2 1154.4 484.1 1157 481.5 1159 478.8 1161.4 476.5 1166.7 473 1172.3 470.1 1178.2 467.7 1183 466.7 1187.8 466.4 1189 466.7 1189.9 467.6 1190.3 468.8 1190 470 1181.7 478.7 1173 486.9 1163.9 494.6 1163.4 495.2 1163.3 495.9 1163.5 496.6 1164.6 498.2 1166.3 499.2 1168.2 499.6 1171.9 499.4 1175.6 498.8 1179.1 497.6 1182.4 495.9 1190.3 490.8 1197.8 485.1 1204.9 478.9 1211.6 472.3 1217.7 465.2 1218.9 462.7 1219.6 460.1 1219.9 457.4 1219.5 454.6 1217.9 451.9 1215.6 449.7 1212.9 448 1208.1 447 1203.2 446.6 1198.8 446.7 1194.5 447.2 1190.3 448.2 1186.2 449.7 1184 451.5 1181.5 452.7 1175.4 454.5 1169.6 457.1 1164.1 460.2 1158.9 464 1154.3 468.4 1152.9 468.7 1147.3 475 1142.2 481.8 1137.7 489 1133.8 496.5 1132.9 500.4 1132.6 504.4 1132.9 508.3 1133.8 512.2 1135.3 515.9 1137.3 519.3 1139.8 522.4 1143.5 526.2 1147.6 529.5 1152.1 532.3 1156.9 534.5 1161.9 536.2 1167.1 538.7 1172.5 540.6 1178.2 541.8 1183.9 542.3 1188.3 543.2"/><polygon class="st0" points="1326.2 482.9 1325.1 480.3 1323.4 478 1321.1 476.2 1318.5 475 1312.1 474.5 1305.6 474.9 1295.3 476.3 1287.5 479.5 1279.5 482.5 1271.4 485 1262.4 491.3 1253.1 496.9 1243.4 502 1241.6 503.4 1240.4 505.4 1238.9 506.3 1237.1 506.6 1235.4 506.3 1233.9 505.4 1233.4 503.6 1233.2 501.8 1233.4 500 1235.5 491.8 1236.9 490.2 1238 488.3 1238.6 486.3 1240.4 480.4 1241 478.8 1241 477.1 1240.4 475.4 1239.2 474.2 1237.7 473.4 1235.7 473 1233.7 473 1231.8 473.6 1229.3 474.4 1227 475.7 1225 477.4 1223.4 482.2 1221.4 483.7 1219.9 485.6 1218.9 487.9 1218.6 490.4 1218.8 493.8 1217 496.8 1215.9 500.1 1215.4 503.6 1215.7 508.8 1215.7 514 1215.2 519.3 1215.6 521.3 1216.5 523.1 1217.7 524.8 1219.2 526.1 1221 527 1222.9 527.5 1226.4 527.5 1229.8 527 1233.2 526.2 1255.9 510.5 1263.6 504.2 1271.6 498.3 1280 492.9 1288.7 488.1 1292.2 486.4 1295.8 485.4 1299.6 484.8 1301.6 485.2 1303.4 486.1 1304.9 487.4 1306 489.1 1306.5 491.1 1307 492.6 1307.9 493.9 1309.2 494.9 1312.1 495.4 1315 495.4 1318 494.8 1320.4 493.8 1322.5 492.3 1324.4 490.4 1325.8 488.2 1326.7 485.7 1326.2 482.9"/><polygon class="st0" points="1094 579.1 1091.4 577.3 1088.5 576.2 1085.4 575.8 1082.2 576.2 1079.3 577.3 1076.7 579.1 1074.7 581.5 1074.7 576.5 1067.8 576.5 1067.8 610.2 1075.3 610.2 1075.3 587 1076.4 585 1078.1 583.4 1080.2 582.4 1082.5 582.1 1084.7 582.4 1086.8 583.4 1088.5 585 1089.6 587 1089.6 610.2 1097.4 610.2 1097.4 585.6 1097.4 585.6 1096 581.5 1094 579.1"/><path class="st0" d="M1136,586.9l-1.7-3.1-2.2-2.7-2.7-2.2-3.1-1.6-3.4-1h-4.3l-3.6.8-3.3,1.5-3,2.2-2.4,2.7-1.8,3.2-1.1,3.5-.4,3.6.4,3.6,1.1,3.5,1.8,3.2,2.4,2.7,3,2.2,3.3,1.5,3.6.8h4.3l3.4-1,3.1-1.6,2.7-2.2,2.2-2.7,1.7-3.1,1-3.4.3-3.5-.3-3.5-1-3.4ZM1129.6,596.7l-1.1,2.9-1.7,2.5-2.3,2-2.7,1.4h-3.3l-2.7-1.4-2.3-2-1.7-2.5-1.1-2.9-.4-3,.4-3,1.1-2.9,1.7-2.5,2.3-2,2.7-1.4h3.3l2.7,1.4,2.3,2,1.7,2.5,1.1,2.9.4,3-.4,3Z"/><path class="st0" d="M1174.5,586.9l-1.7-3.1-2.2-2.7-2.7-2.2-3.1-1.6-3.4-1h-4.3l-3.6.8-3.3,1.5-3,2.2-2.4,2.7-1.8,3.2-1.1,3.5-.4,3.6.4,3.6,1.1,3.5,1.8,3.2,2.4,2.7,3,2.2,3.3,1.5,3.6.8h4.3l3.4-1,3.1-1.6,2.7-2.2,2.2-2.7,1.7-3.1,1-3.4.3-3.5-.3-3.5-1-3.4ZM1168,596.7l-1.1,2.9-1.7,2.5-2.3,2-2.7,1.4h-3.3l-2.7-1.4-2.3-2-1.7-2.5-1.1-2.9-.4-3,.4-3,1.1-2.9,1.7-2.5,2.3-2,2.7-1.4h3.3l2.7,1.4,2.3,2,1.7,2.5,1.1,2.9.4,3-.4,3Z"/><path class="st0" d="M1206.2,564v18.2l-1.6-2.3-2.1-1.9-2.4-1.4-2.7-.8-2.8-.2-2.8.4-3.2,1.5-2.8,2.1-2.4,2.6-1.8,3-1.2,3.3-.5,3.5v3.5c.1,0,.6,3.4.6,3.4l1.2,3.3,1.8,3,2.4,2.5,2.8,2,3.2,1.4,3.4.7,2.6-.2,2.6-.7,2.4-1.2,2.1-1.6,1.7-2v4h6.9v-46.2h-7.4ZM1198.4,605.5h-2.6l-2.5-.7-2.2-1.4-1.7-2-1.1-2.4-.7-3.1v-3.2c-.1,0,.3-3.2.3-3.2l.8-2.3,1.4-2,1.9-1.6,2.3-1,2.5-.4,2.5.3,2.3.9,2,1.5,1.5,2,1,2.3.4,3.4v3.4c0,0-.6,3.3-.6,3.3l-1.1,2.4-1.7,2-2.2,1.4-2.5.7Z"/><rect class="st0" x="1221.6" y="564" width="7.6" height="46.2"/><path class="st0" d="M1266.6,585.6l-1.7-3-2.3-2.6-2.8-2-3.2-1.4-3.4-.7h-3.5s-3.4.8-3.4.8l-3.1,1.4-2.8,2.1-2.3,2.6-1.7,3-1,3.3-.3,3.5.2,2.9.5,2.9,1,3.2,1.6,2.9,2.2,2.5,2.6,2,3,1.5,3.2.9,3.3.2,3.3-.5,3.1-1.1,2.8-1.7,2.4-2.2,1.7-2.7,1.1-3h-6.9l-1.5,2-1.9,1.5-2.3,1-2.4.3-2.5-.3-2.3-.9-2-1.5-1.5-2-1-2.3-.3-2.5,25.5-.3v-3l-.3-3.4-1.1-3.3ZM1260.1,590.5h-17.2v-.6l.5-2.5,1.3-2.3,1.9-1.8,2.3-1.1,2.6-.4,2.6.4,2.3,1.1,1.9,1.8,1.3,2.3.5,2.5v.6Z"/><polygon class="st0" points="1299.2 594.8 1297.1 592.8 1294.5 591.5 1291.7 591 1287.7 590.6 1283.9 589.5 1280.3 587.7 1279.6 586.5 1279.4 585.1 1279.8 583.8 1281.6 582.3 1283.8 581.5 1286.1 581.3 1288.3 581.9 1290.3 583 1291.5 584.5 1292.2 586.3 1299.9 586.3 1299.9 584.8 1298.7 582 1296.8 579.5 1294.3 577.6 1291.4 576.4 1288.1 575.8 1284.8 575.8 1281.5 576.4 1278.9 577 1276.5 578.3 1274.5 580.1 1273.1 582.3 1272.2 584.8 1272 587.3 1272.6 589.6 1273.8 591.7 1275.5 593.4 1277.7 594.5 1280 595 1284.2 595.7 1288.3 596.8 1292.3 598.4 1293.4 599.3 1294 600.6 1294 602.1 1294 602.1 1293.4 603.4 1292.3 604.3 1290.1 605.5 1287.7 606.1 1285.2 606.1 1282.9 605.5 1280.7 604.3 1279.6 602.9 1278.9 601.3 1278.7 599.6 1270.9 599.6 1271.9 602.6 1273.4 605.3 1275.5 607.7 1278 609.6 1280.8 611 1284.3 611.4 1287.8 611.4 1291.3 611 1294.2 610 1296.9 608.4 1299.1 606.3 1300.8 603.8 1301.4 601.6 1301.4 599.4 1300.8 597.2 1299.2 594.8"/>
</g>
<g transform="translate(600,-178.0)">
<polygon class="st0" points="347.8 660.7 349 661 350.2 660.7 351 659.7 351.2 658.4 353.3 646.9 356 635.6 359.5 624.5 363.7 613.6 368.5 603 374 592.7 380.1 582.8 380.5 581.7 380.1 580.5 379.1 579.8 378 579.8 377 580.5 370.7 590.8 365.1 601.4 360.1 612.3 355.7 623.5 352.1 635 349.1 646.6 346.8 658.4 346.9 659.7 347.8 660.7"/><polygon class="st0" points="382.2 614.1 388.3 600.7 395.1 587.6 395.1 586.4 394.5 585.3 393.4 584.8 392.2 584.8 391.1 585.5 384.4 598.9 378.3 612.7 372.9 626.7 368.3 641 364.4 655.5 364.7 656.8 365.6 657.7 366.9 657.9 368 657.3 368.6 656.1 372.4 641.9 376.9 627.9 382.2 614.1"/><polygon class="st0" points="419.2 594.8 418.2 594 416.8 594 415.7 594.7 415.3 596 412.8 615.7 409.5 635.3 405.5 654.8 400.7 674 400.5 675.2 400.9 676.2 401.8 676.9 403 677 404 676.4 404.5 675.3 409.1 655.7 413.2 636 416.7 616.1 419.6 596.2 419.2 594.8"/><polygon class="st0" points="370.2 580.1 371.4 580.2 372.5 579.6 373.1 578.6 375.4 575.8 378.3 573.5 381.6 571.9 385.1 571.1 388.8 571.1 397.6 572.9 406.2 575.4 414.7 578.4 422.9 582 430.8 586.1 434.4 588.5 437.4 591.5 440 594.9 441.8 598.7 443 602.8 443.5 607 443.2 611.3 442.1 621.9 440.3 632.4 437.7 642.8 434.6 653 430.7 663 426.2 672.7 425.8 674 426.3 675.3 427.5 676.1 428.9 676 429.9 675.2 434.6 665 438.5 654.6 441.8 644 444.4 633.1 446.3 622.1 447.4 611.1 447.6 606.3 447 601.6 445.7 597.1 443.6 592.9 440.8 589.1 437.4 585.8 433.4 583.1 425.9 578.7 418.1 574.9 409.9 571.8 401.5 569.5 392.9 568 388.6 567.6 384.4 568 380.2 569.1 376.3 570.8 372.8 573.2 369.6 576.1 368.8 577 368.7 578.2 369.1 579.4 370.2 580.1"/><polygon class="st0" points="343.6 672 348.2 674.7 344.6 683.1 344.4 684.3 344.8 685.5 345.8 686.2 347.1 686.3 348.2 685.7 348.8 684.6 351.8 676.4 362.2 680.6 373 683.9 383.9 686.5 395 688.1 406.2 688.9 417.5 688.8 418.3 687.6 418.3 686.1 417.4 684.9 416 684.4 406.8 684.8 397.5 684.5 388.3 683.4 379.2 681.7 370.2 679.2 361.5 676.1 353 672.3 355.3 665.5 355.6 664.4 355.2 663.3 354.3 662.6 353.2 662.6 352.2 663.2 351.7 664.2 349.2 670.6 345 668.5 343.9 668.5 343 669.1 342.6 670.1 342.8 671.2 343.6 672"/><polygon class="st0" points="336.4 686.6 343.9 691.2 351.7 695.1 359.9 698.3 368.3 700.8 376.9 702.6 385.7 703.6 394.4 703.9 403.2 703.3 411.9 702 420.5 700 421.4 699.2 421.7 698.1 421.3 697 420.4 696.3 419.2 696.2 411 698.1 402.7 699.3 394.3 699.8 385.8 699.5 377.4 698.6 369.2 696.9 361.1 694.5 353.2 691.4 345.7 687.7 338.5 683.3 337.2 682.9 336 683.3 335.3 684.4 335.5 685.6 336.4 686.6"/><polygon class="st0" points="354.8 725.7 352.2 722.7 352 722.4 355.3 726.2 359.3 729.5 363.7 732.1 368.5 734.1 373.6 735.3 378.8 735.7 384 735.3 389 734.2 393.9 732.2 398.3 729.6 402.3 726.3 405.7 722.5 405.6 722.7 402.9 725.7 428.7 738.7 432.2 731.7 407.9 719.4 406.2 721.8 408.7 718.1 410.8 713.3 404.3 710.2 402.4 714.5 399.8 718.5 396.6 721.9 392.7 724.7 388.5 726.7 383.9 728 379.2 728.4 374.5 727.9 369.9 726.6 365.7 724.6 361.9 721.7 358.6 718.3 356 714.3 354.2 710 346.9 713.1 349 717.9 351.4 721.6 349.9 719.4 325.5 731.7 329.1 738.7 354.8 725.7"/><polygon class="st0" points="489 691.7 489.1 691 488.9 690.4 488.3 689.8 487.4 689.7 486.9 690 486.6 690.5 479.1 702.8 478.2 703.4 477.2 703.2 476.5 702.4 476.5 701.3 484 688.8 484.2 688.1 484.1 687.5 483.6 686.9 482.9 686.7 482 687.4 474.2 699.8 473.4 700.2 472.4 700.1 471.7 699.4 471.6 698.4 479.8 685.1 479.5 684.2 478.7 683.6 477.7 683.5 465.6 699.3 464.8 701.4 464.7 703.6 465.4 705.8 466.8 707.5 453.6 722 459.2 726.7 471.4 711.1 473.3 711.7 475.6 711.7 477.8 711.1 479.7 709.8 481.1 708 489 691.7"/><polygon class="st0" points="455.9 742.5 456 738.3 455.3 734.2 448.1 736.1 448.8 739.3 448.6 742.5 447.6 745.6 445.8 748.3 443.4 750.4 440.5 751.9 437.3 752.5 434.1 752.4 431 751.3 428.3 749.5 423.8 756 427.4 758.2 431.4 759.5 435.5 760 439.7 759.6 443.7 758.4 447.4 756.4 450.5 753.7 453.1 750.3 454.9 746.6 455.9 742.5"/><polygon class="st0" points="307.1 720.8 290.9 709.8 291.1 706.3 290.6 702.8 289.6 699.4 288 696.3 285.1 693.4 281.8 690.9 278.2 688.9 274.4 687.4 271.6 686.9 268.8 687 266.1 687.7 263.6 689 261.9 691.7 260.9 694.8 260.7 698.1 261.3 701.3 262.7 704.2 265.5 707.7 268.9 710.7 272.8 712.9 277 714.5 281.5 715.2 284.5 715 287.5 714.4 302.7 726.7 307.1 720.8"/><polygon class="st0" points="317.8 759.6 322 760 326.2 759.5 330.1 758.2 333.7 756 329.3 749.5 326.5 751.3 323.5 752.4 320.2 752.5 317.1 751.9 314.2 750.4 311.7 748.3 310 745.6 308.9 742.5 308.7 739.3 309.4 736.1 302.3 734.2 301.5 738.3 301.7 742.5 302.6 746.6 304.4 750.3 307 753.7 310.2 756.4 313.8 758.4 317.8 759.6"/><polygon class="st0" points="417.8 768.7 422.1 762.7 417.2 757.3 399.3 768 357.3 768 340.9 757.6 335.8 763.2 340.2 768.7 317.4 768.7 313.5 772.7 315.3 778.8 318 784.6 321.4 789.9 325.5 794.8 331.4 790 328.4 786.8 325.8 783.3 323.8 779.3 322.5 775.1 435.7 775.1 435.7 775.1 433.2 780.8 430.1 786.1 426.2 790.9 431.5 795.8 435.7 790.8 439.3 785.4 442.1 779.5 444.2 773.4 440.7 768.7 417.8 768.7"/><polygon class="st0" points="389.9 791.9 390.4 796 390 800.1 388.9 804.1 386.9 807.7 384.2 810.9 388.8 817.2 391.8 813.6 394.3 809.6 396.2 805.3 397.4 800.7 397.9 796.1 397.8 791.4 389.9 791.9"/><polygon class="st0" points="412 784.7 412.3 789.1 411.7 793.5 410.4 797.7 408.2 801.5 405.4 804.9 410.5 810.6 413.9 807.1 416.6 803.2 418.6 798.8 419.8 794.1 420.2 789.2 419.6 784.4 412 784.7"/><polygon class="st0" points="369.3 804.1 368.1 800.1 367.8 796 368.3 791.9 360.4 791.4 360.3 796.1 360.8 800.7 362 805.3 363.9 809.6 366.4 813.6 369.4 817.2 374 810.9 371.3 807.7 369.3 804.1"/><polygon class="st0" points="346.4 797.7 345.1 793.5 344.5 789.1 344.8 784.7 337.2 784.4 336.7 789.2 337 794.1 338.2 798.8 340.2 803.2 342.9 807.1 346.3 810.6 351.4 804.9 348.6 801.5 346.4 797.7"/>
</g>
</svg>